<svg viewBox="0 0 24 24" fill="none" xmlns="http://www.w3.org/2000/svg">
  <path fill-rule="evenodd" clip-rule="evenodd"
    d="M3 12C3 10.8954 3.89543 10 5 10H19C20.1046 10 21 10.8954 21 12C21 13.1046 20.1046 14 19 14H5C3.89543 14 3 13.1046 3 12Z"
    fill="currentColor" />
  <path fill-rule="evenodd" clip-rule="evenodd"
    d="M10.5858 3.58579C11.3668 2.80474 12.6332 2.80474 13.4142 3.58579L20.4142 10.5858C21.1953 11.3668 21.1953 12.6332 20.4142 13.4142L13.4142 20.4142C12.6332 21.1953 11.3668 21.1953 10.5858 20.4142C9.80474 19.6332 9.80474 18.3668 10.5858 17.5858L16.1716 12L10.5858 6.41421C9.80474 5.63317 9.80474 4.36683 10.5858 3.58579Z"
    fill="currentColor" />
</svg>