<svg viewBox="0 0 24 24" fill="none" xmlns="http://www.w3.org/2000/svg">
  <g clip-path="url(#clip0_87_653)">
    <path fill-rule="evenodd" clip-rule="evenodd"
      d="M3.41421 0.585786C2.63317 -0.195262 1.36684 -0.195262 0.585786 0.585786C-0.195262 1.36683 -0.195262 2.63317 0.585786 3.41421L9.17157 12L0.585787 20.5858C-0.195261 21.3668 -0.195261 22.6332 0.585787 23.4142C1.36684 24.1953 2.63317 24.1953 3.41422 23.4142L12 14.8284L20.5858 23.4142C21.3668 24.1953 22.6332 24.1953 23.4142 23.4142C24.1953 22.6332 24.1953 21.3668 23.4142 20.5858L14.8284 12L23.4142 3.41421C24.1953 2.63317 24.1953 1.36683 23.4142 0.585786C22.6332 -0.195262 21.3668 -0.195262 20.5858 0.585786L12 9.17157L3.41421 0.585786Z"
      fill="currentColor" />
  </g>
</svg>