<svg viewBox="0 0 120 120" fill="none" xmlns="http://www.w3.org/2000/svg">
  <title>Hard Rock Paper Scissors</title>
  <path
    d="M111.198 38.2974C111.673 40.1858 111.924 42.1464 111.924 44.1431V76.4302C111.924 85.0046 107.349 92.9282 99.9238 97.2154L71.9619 113.359C69.377 114.851 66.5828 115.823 63.7256 116.276C63.2512 114.388 63 112.427 63 110.43V78.1431C63 69.5689 67.5747 61.6462 75 57.3589L102.962 41.2154C105.547 39.7229 108.341 38.7508 111.198 38.2974ZM8.68164 38.4683C11.2052 38.9742 13.6659 39.8898 15.9619 41.2154L43.9238 57.3589C51.3492 61.6462 55.9238 69.5689 55.9238 78.1431V110.43C55.9238 112.366 55.6879 114.269 55.2412 116.104C52.7181 115.598 50.2575 114.684 47.9619 113.359L20 97.2154C12.5744 92.9282 8 85.0046 8 76.4302V44.1431C8 42.2067 8.2349 40.3039 8.68164 38.4683ZM47.9619 7.21539C55.3875 2.9282 64.5363 2.9282 71.9619 7.21539L99.9238 23.3589C102.793 25.0155 105.234 27.2166 107.152 29.7867C105.234 32.357 102.793 34.5588 99.9238 36.2154L71.9619 52.3589C64.5364 56.646 55.3874 56.646 47.9619 52.3589L20 36.2154C17.1305 34.5587 14.689 32.3572 12.7705 29.7867C14.6889 27.2164 17.1307 25.0156 20 23.3589L47.9619 7.21539Z"
    fill="currentColor" />
</svg>