<svg viewBox="0 0 96 96" fill="currentColor" xmlns="http://www.w3.org/2000/svg">
  <path fill-rule="evenodd" clip-rule="evenodd"
    d="M81.0008 26.1049C80.1718 25.1638 79.1895 24.3481 78.0777 23.6993L53.9223 9.60388C50.2576 7.46537 45.7424 7.46537 42.0777 9.60388L17.9224 23.6993C16.8105 24.3481 15.8283 25.1638 14.9992 26.1048C15.8283 27.0459 16.8105 27.8616 17.9224 28.5104L42.0777 42.6058C45.7424 44.7443 50.2576 44.7443 53.9224 42.6058L78.0777 28.5104C79.1895 27.8616 80.1718 27.0459 81.0008 26.1049ZM44.2785 87.7188C43.5214 87.4656 42.7837 87.133 42.0777 86.7209L17.9223 72.6255C14.2576 70.487 12 66.5348 12 62.2578V34.067C12 33.268 12.0788 32.4804 12.2308 31.7139C12.9878 31.9671 13.7255 32.2998 14.4316 32.7118L38.5869 46.8072C42.2517 48.9457 44.5093 52.8979 44.5093 57.1749V85.3658C44.5093 86.1647 44.4305 86.9523 44.2785 87.7188ZM84 34.067C84 33.1701 83.9007 32.2874 83.71 31.4328C82.609 31.6974 81.5369 32.1238 80.5292 32.7119L56.3739 46.8073C52.7091 48.9458 50.4515 52.8979 50.4515 57.175V85.3658C50.4515 86.2628 50.5508 87.1454 50.7416 88C51.8425 87.7354 52.9146 87.309 53.9223 86.721L78.0777 72.6255C81.7424 70.487 84 66.5349 84 62.2579V34.067Z"
    fill="currentColor" />
</svg>