<svg viewBox="0 0 96 96" fill="none" xmlns="http://www.w3.org/2000/svg">
  <path d="M24 16C24 12 27 7.99995 32 8H80C85 8 88 12 88 16H72V80C72 85 69 88 64 88H16C11 88 8 85 8 80H24V16Z"
    fill="white" />
  <path fill-rule="evenodd" clip-rule="evenodd"
    d="M88 20H76V80C76 83.302 74.9937 86.4132 72.7034 88.7034C70.4132 90.9937 67.302 92 64 92H16C12.698 92 9.58681 90.9937 7.29657 88.7034C5.00633 86.4132 4 83.302 4 80C4 77.7909 5.79086 76 8 76H20V16C20 10.1257 24.4704 3.99995 32 4H80C87.5296 4 92 10.1256 92 16C92 18.2091 90.2091 20 88 20ZM56 78H26V16C26 12.9372 28.2648 9.99997 32 10H71.957C70.6838 11.7521 70 13.8875 70 16V80C70 82.099 69.3782 83.5434 68.4608 84.4608C67.5434 85.3782 66.099 86 64 86C61.901 86 60.4566 85.3782 59.5392 84.4608C58.6218 83.5434 58 82.099 58 80C58 78.8954 57.1046 78 56 78ZM74.3294 14C75.0838 11.7728 77.0982 10 80 10C82.9018 10 84.9162 11.7728 85.6706 14H74.3294ZM54.1491 82C54.3789 83.4836 54.8761 84.8375 55.6532 86H16C13.901 86 12.4566 85.3782 11.5392 84.4608C10.9487 83.8703 10.4806 83.0613 10.222 82H54.1491Z"
    fill="currentColor" />
</svg>