<svg viewBox="0 0 96 96" fill="none" xmlns="http://www.w3.org/2000/svg">
  <path d="M48 8L88 48L48 88L8 48L48 8Z" fill="white" />
  <path fill-rule="evenodd" clip-rule="evenodd"
    d="M50.8284 5.17157C49.2663 3.60947 46.7337 3.60947 45.1716 5.17157L5.17157 45.1716C3.60948 46.7337 3.60948 49.2663 5.17157 50.8284L45.1716 90.8284C46.7337 92.3905 49.2663 92.3905 50.8284 90.8284L90.8284 50.8284C92.3905 49.2663 92.3905 46.7337 90.8284 45.1716L50.8284 5.17157ZM60.6123 61L48 83.8599L35.3877 61H60.6123ZM39.4233 76.5949L30.5673 60.5434L17.2834 54.4549L39.4233 76.5949ZM30.7708 56.2366L11.4481 47.3803L43.6527 15.1758L30.7708 56.2366ZM34.7236 57L48 14.6814L61.2764 57H34.7236ZM84.5519 47.3803L65.2292 56.2366L52.3473 15.1758L84.5519 47.3803ZM65.4327 60.5434L78.7166 54.4549L56.5767 76.5949L65.4327 60.5434Z"
    fill="currentColor" />
</svg>