<svg viewBox="0 0 96 96" fill="none" xmlns="http://www.w3.org/2000/svg">
  <circle cx="76" cy="76" r="15" fill="white" />
  <circle cx="76" cy="76" r="15" fill="white" />
  <circle cx="20" cy="76" r="15" fill="white" />
  <circle cx="20" cy="76" r="15" fill="white" />
  <path fill-rule="evenodd" clip-rule="evenodd"
    d="M5.87868 5.87868C7.05025 4.70711 8.94975 4.70711 10.1213 5.87868L42.1213 37.8787C43.2929 39.0503 43.2929 40.9497 42.1213 42.1213C40.9497 43.2929 39.0503 43.2929 37.8787 42.1213L5.87868 10.1213C4.70711 8.94975 4.70711 7.05025 5.87868 5.87868ZM90.1213 5.87868C91.2929 7.05025 91.2929 8.94975 90.1213 10.1213L52.2426 48L67.7278 63.4852C70.0991 61.9146 72.9427 61 76 61C84.2843 61 91 67.7157 91 76C91 84.2843 84.2843 91 76 91C67.7157 91 61 84.2843 61 76C61 72.9427 61.9146 70.0991 63.4852 67.7278L48 52.2426L32.5148 67.7278C34.0854 70.0991 35 72.9427 35 76C35 84.2843 28.2843 91 20 91C11.7157 91 5 84.2843 5 76C5 67.7157 11.7157 61 20 61C23.0572 61 25.9009 61.9146 28.2722 63.4852L85.8787 5.87868C87.0503 4.70711 88.9497 4.70711 90.1213 5.87868ZM20 67C15.0294 67 11 71.0294 11 76C11 80.9706 15.0294 85 20 85C24.9706 85 29 80.9706 29 76C29 71.0294 24.9706 67 20 67ZM76 67C71.0294 67 67 71.0294 67 76C67 80.9706 71.0294 85 76 85C80.9706 85 85 80.9706 85 76C85 71.0294 80.9706 67 76 67Z"
    fill="currentColor" />
</svg>